<svg width="375" height="126" viewBox="0 0 375 126" fill="none" xmlns="http://www.w3.org/2000/svg">
<path fill-rule="evenodd" clip-rule="evenodd" d="M142.382 26C149.247 26 154.967 21.0959 158.776 15.384C164.96 6.10971 175.517 0 187.5 0C199.483 0 210.04 6.10971 216.224 15.384C220.033 21.0959 225.753 26 232.618 26H360C368.284 26 375 32.7157 375 41V107C375 115.284 368.284 122 360 122H15C6.71574 122 0 115.284 0 107V41C0 32.7157 6.71573 26 15 26H142.382Z" fill="#000707"/>
<path fill-rule="evenodd" clip-rule="evenodd" d="M142.382 30C149.247 30 154.967 25.0959 158.776 19.384C164.96 10.1097 175.517 4 187.5 4C199.483 4 210.04 10.1097 216.224 19.384C220.033 25.0959 225.753 30 232.618 30H360C368.284 30 375 36.7157 375 45V111C375 119.284 368.284 126 360 126H15C6.71574 126 0 119.284 0 111V45C0 36.7157 6.71573 30 15 30H142.382Z" fill="#1C1D21"/>
</svg>
